<svg xmlns="http://www.w3.org/2000/svg" width="31.261" height="25.991" viewBox="0 0 31.261 25.991">
  <path id="Caminho_62" data-name="Caminho 62" d="M30.869,43.3a1.3,1.3,0,0,0-.884-.393H24.813v-.818h4.255a.914.914,0,0,0,.655-.262l.033-.033a1.021,1.021,0,0,0,.295-.687V33.182a.892.892,0,0,0-.295-.687,1.021,1.021,0,0,0-.687-.295H16.236a.892.892,0,0,0-.687.295,1.021,1.021,0,0,0-.295.687V41.1a.892.892,0,0,0,.295.687,1.021,1.021,0,0,0,.687.295h4.288V42.9H1.309a1.189,1.189,0,0,0-.917.393A1.313,1.313,0,0,0,0,44.214a1.189,1.189,0,0,0,.393.917,1.351,1.351,0,0,0,.818.36V57.7a.482.482,0,0,0,.491.491H29.559a.482.482,0,0,0,.491-.491V45.49a1.351,1.351,0,0,0,.818-.36,1.313,1.313,0,0,0,.393-.917A1.189,1.189,0,0,0,30.869,43.3Zm-14.6-10.082h12.8v6.154h-12.8Zm0,7.856v-.687h12.8v.687h-12.8ZM23.8,42.086V42.9H21.507v-.818ZM15.123,57.176H2.226V51.841h12.9Zm-12.9-6.35v-5.3h12.9v5.3Zm26.842,6.35H16.138V45.523h12.93Zm1.08-12.766a.283.283,0,0,1-.2.1H1.342a.233.233,0,0,1-.2-.1.283.283,0,0,1-.1-.2.233.233,0,0,1,.1-.2.283.283,0,0,1,.2-.1h28.61a.233.233,0,0,1,.2.1.2.2,0,0,1,.1.2A.233.233,0,0,1,30.148,44.41Z" transform="translate(0 -32.2)" fill="#2f4aa1"/>
</svg>
